<?xml version="1.0" encoding="UTF-8"?>
<svg id="Layer_1" data-name="Layer 1" xmlns="http://www.w3.org/2000/svg" viewBox="0 0 687.78 462.5">
  <defs>
    <style>
      .cls-1 {
        fill: #ed1c24;
      }
    </style>
  </defs>
  <path class="cls-1" d="M4.31.31c100.24-2.83,242.58,12.98,319.03,83.16,20.87,19.07,37.06,43.55,45.14,70.72.68,1.85,1.34,4.9,1.88,6.81,1.8,6.71,2.85,13.77,4.29,20.53,26.02,120.59,150.04,225.06,260.16,270.48,11.9,4.51,44.9,16.68,52.98,6.22-7.99,10.77-42.42-1.75-53.18-5.69-111.47-44.69-236.91-148.59-264.36-270.04-1.5-6.72-2.6-13.69-4.45-20.31-.56-1.85-1.21-4.79-1.89-6.59-8.1-26.24-23.97-49.71-44.37-67.98-27.3-24.69-61.31-40.8-96.02-52.25C153.19,13.09,78.29,6.66,4.82,9.29,2.32,9.47.13,7.55,0,5.04-.13,2.55,1.81.41,4.31.31h0Z"/>
</svg>