<?xml version="1.0" encoding="UTF-8"?>
<svg id="Layer_1" data-name="Layer 1" xmlns="http://www.w3.org/2000/svg" viewBox="0 0 391.34 85.48">
  <defs>
    <style>
      .cls-1 {
        fill: #8b5e3c;
      }
    </style>
  </defs>
  <path class="cls-1" d="M.79,22.92l2.32.79-.79,2.32-2.32-.79.79-2.32ZM16.68.18c3.59-.5,5.91.02,6.95,1.57l3.07-.79c7.75,0,12.66,1.03,14.73,3.1l6.17-.79c2.57,1.55,4.37,4.39,5.42,8.53-1.05,4.64-1.05,8.24,0,10.81l-5.42,10.06-3.85,4.64c-2.07,1.55-8.26,3.35-18.58,5.42l-6.95,9.27,3.1,6.21c-1.05,6.18-3.38,9.27-6.99,9.27-6.18,0-10.05-1.28-11.59-3.85.52-5.68.01-9.56-1.53-11.63l3.1-21.65,2.32-2.32-.79-13.16c-3.09-2.04-3.35-4.36-.79-6.95l4.64-4.64,5.42-1.53,1.57-1.57ZM3.89,12.86h1.53v1.57h-1.53v-1.57ZM21.39,20.9l1.57,3.89,3.85,3.07c2.59,1.55,7.75-.26,15.48-5.42v-2.32l-10.06-6.17c-4.11-.52-7.2.25-9.27,2.32l-1.57,4.64ZM41.02,58.51h1.53v1.53h-1.53v-1.53ZM47.19,39.18h1.57v1.53h-1.57v-1.53Z"/>
  <path class="cls-1" d="M68.05,17.98l15.67,1.83c3.09-2.47,7.4-3.7,12.94-3.7,5.53,1.25,9.53,3.71,12,7.4v4.6c-4.31,4.91-12.31,7.37-24.01,7.37-1.22,11.69-.91,19.69.93,24.01,0,3.69-1.55,6.46-4.64,8.3-3.69.62-5.83.01-6.43-1.83l-9.24-25.84-7.4-11.07c.62-6.16,4.01-9.85,10.17-11.07Z"/>
  <path class="cls-1" d="M113.45,30.69l1.5-1.2-.9,1.5-.3-1.2-.3.9ZM115.24,22.32l.56-.3v1.87h-1.87l1.31-1.57ZM114.87,24.38l2.8.93-.93,2.8-2.8-.93.93-2.8ZM119.95,28.26l2.8.93,4.64-7.48,7.48-4.67,22.44,10.28,4.67,9.35c-.62,18.05-6.54,28.32-17.76,30.81-8.1,1.25-14.94-.31-20.53-4.67-5.61-3.74-8.72-7.79-9.35-12.15v-5.57l7.48-13.09-2.8-.93.93-2.8ZM118.61,34.17l2.8.93-.93,2.8-2.8-.93.93-2.8ZM127.96,8.03h1.83v1.87h-1.83v-1.87ZM129.79,2.43h1.87v1.87h-1.87v-1.87ZM132.78,36.04c-1.25,2.49,0,7.78,3.74,15.85h4.67l3.74-2.8-.93-11.18-3.74-4.67c-1.87-.62-4.36.31-7.48,2.8ZM135.4,10.8l2.8.93-.93,2.8-2.8-.93.93-2.8Z"/>
  <path class="cls-1" d="M189.09,31.07c3.97,1.47,5.95,5.19,5.95,11.14l-2.21,26.77-7.44,11.89-3.7,2.95-8.94,1.5c-1.99.5-3.98-.24-5.95-2.21l.75-4.49,5.2-5.95c3.96-.5,6.94-2.98,8.94-7.44,1.47-14.86.72-23.03-2.24-24.53l2.24-6.69,7.4-2.95ZM190.59,14.99c2.49,1,2.99,3.73,1.5,8.19l-4.45,4.45-4.49,1.5-3.7-.75-3.7-7.44,2.95-5.95h11.89Z"/>
  <path class="cls-1" d="M198.29,36.19h1.91v1.91h-1.91v-1.91ZM228.92,20.9h5.76l10.51,7.63.97,2.88-1.91,11.48c-5.11,3.84-7.67,6.72-7.67,8.64l3.81,2.88,8.64,1.91c1.27,2.54.95,5.1-.97,7.67l-9.57,3.81c-12.12.65-22.65-1.58-31.6-6.69-4.46-3.84-6.69-7.99-6.69-12.45.65-5.11,4.16-11.17,10.54-18.17l18.17-9.57ZM201.17,33.31h1.91v1.94h-1.91v-1.94ZM204.05,25.68l2.84.93-.93,2.88-2.88-.97.97-2.84ZM218.41,40.98v1.91l4.79.97v1.91h3.81l.97-2.88,5.72-2.84v-2.88l-3.81-.97v-1.91l-11.48,6.69ZM245.18,50.55l2.88.97-.93,2.88-2.88-.97.93-2.88ZM248.06,39.07l3.85.97-.97,3.81-3.81-.97.93-3.81Z"/>
  <path class="cls-1" d="M272.4,18.13c3.84,1.27,6.39.95,7.67-.97,7.65,1.92,11.48,4.16,11.48,6.73.65,5.09-1.26,8.59-5.72,10.51-5.76-2.54-10.54.34-14.36,8.64l2.88,7.63c2.54.65,7-.3,13.39-2.84l8.6.93c1.92,7.03-5.41,12.45-21.99,16.27-7.03-1.27-12.78-4.14-17.24-8.6l-3.85-10.54c0-5.09,4.15-13.7,12.45-25.84l6.69-1.91Z"/>
  <path class="cls-1" d="M315.85,1.98l4.97.82c3.34.55,5.56,6.66,6.66,18.32l7.52,5.8-.82,4.19c-1.12,2.77-4.74,3.6-10.84,2.51l-2.51,3.33c-2.22,4.44-2.22,7.77,0,9.98l9.16,7.48c-1.67,8.87-8.89,13.04-21.65,12.49-3.86.55-6.63-1.12-8.3-5.01l1.65-15.82,2.51-4.97,2.51-11.67-4.15-4.97,6.66-5.83c-1.12-7.78,1.1-13.32,6.66-16.64Z"/>
  <path class="cls-1" d="M343.86,46.21c13.36,4.26,20.95,5.17,22.77,2.73l-.9-5.46-10.96-2.73c-7.9-5.46-10.03-10.93-6.39-16.42.62-3.04,6.41-6.38,17.35-10.02h4.56l2.73,1.83,14.58,3.63,3.63,3.66c.62,1.82-1.5,4.55-6.36,8.19l-5.5-.9c0-3.04-2.73-3.95-8.19-2.73v3.63c7.9,3.04,12.15,5.47,12.75,7.29,3.66,5.48,4.89,10.96,3.66,16.42l-7.29,8.19-10.96,3.66-8.19-1.83-21.87-10.92c0-4.26,1.52-7,4.56-8.23Z"/>
</svg>