<?xml version="1.0" encoding="UTF-8"?>
<svg id="Layer_1" data-name="Layer 1" xmlns="http://www.w3.org/2000/svg" viewBox="0 0 457.32 66.43">
  <defs>
    <style>
      .cls-1 {
        fill: #754c29;
      }
    </style>
  </defs>
  <path class="cls-1" d="M15.24,4.03c3.23-.55,5.11.26,5.63,2.42l8.83-1.6c1.07-2.68,5.63-4.3,13.68-4.85,4.27,1.07,6.15,2.41,5.63,4.03,1.07,1.62.07,4.15-2.98,7.6-.99,1.59-2.68,2.58-5.07,2.98h-12.23l-8.35.89-.6,6.86c-.99,1.59-.5,2.78,1.49,3.58,7.23.4,11.91,1.39,14.05,2.98l-.78,7.23-11.26,2.42c-4.82,1.62-6.98,3.86-6.49,6.75l.86,4.51,11.37-2.72c6.88,3.95,11.93,7.27,15.13,9.95,1.07,4.82,0,7.49-3.21,8.01l-11.26-3.21-14.46,1.6-.78,1.6-.82-.78c-5.37,2.68-9.91,1.88-13.64-2.42v-5.63c3.21-7.5,4.27-11.79,3.21-12.86l-3.21-3.21v-4.81l8.01-6.45v-5.63l1.6-4.81c-2.68-.52-3.48-2.12-2.39-4.81l4.81-4.03c-1.07-2.68,0-4.56,3.21-5.63ZM38.46,43.68c2.68-.52,4.29.01,4.81,1.6.55,2.68.01,4.3-1.6,4.85-2.68.52-4.29-.01-4.81-1.6-.55-2.68-.01-4.3,1.6-4.85ZM44.09,51.73l2.39.82-.78,2.39-2.42-.78.82-2.42Z"/>
  <path class="cls-1" d="M60.6,26.54h7.94c6.61,4.62,10.91,6.61,12.9,5.96l7.9-4.96c1.32-5.96,4.62-9.27,9.91-9.91,3.3,0,5.29,1.65,5.96,4.96l-1.01,4.96c-7.26,6.61-10.56,11.89-9.91,15.84l12.9,11.89c2.63,6.61,2.63,10.25,0,10.92l-7.94-1.01-8.91-6.93-9.91-1.98-7.94,8.91-6.93-.97c-.67-1.99.32-3.98,2.98-5.96,5.29-1.99,6.95-5.29,4.96-9.91l-6.93-5.93-10.92-2.01c-5.29-7.26-3.64-11.88,4.96-13.87Z"/>
  <path class="cls-1" d="M111.33,34.7h1.9v1.9h-1.9v-1.9ZM141.86,19.46h5.74l10.47,7.6.97,2.87-1.9,11.44c-5.09,3.83-7.64,6.7-7.64,8.61l3.8,2.87,8.61,1.9c1.27,2.53.94,5.08-.97,7.64l-9.54,3.8c-12.08.65-22.57-1.58-31.5-6.67-4.45-3.83-6.67-7.96-6.67-12.41.65-5.09,4.15-11.13,10.51-18.11l18.11-9.54ZM114.2,31.83h1.9v1.94h-1.9v-1.94ZM117.07,24.23l2.83.93-.93,2.87-2.87-.97.97-2.83ZM131.38,39.47v1.9l4.77.97v1.9h3.8l.97-2.87,5.7-2.83v-2.87l-3.8-.97v-1.9l-11.44,6.67ZM158.07,49.01l2.87.97-.93,2.87-2.87-.97.93-2.87ZM160.94,37.57l3.84.97-.97,3.8-3.8-.97.93-3.8Z"/>
  <path class="cls-1" d="M177.12,16.55l15.62,1.83c3.08-2.46,7.38-3.69,12.9-3.69,5.52,1.24,9.5,3.7,11.96,7.38v4.58c-4.3,4.9-12.28,7.34-23.93,7.34-1.22,11.65-.91,19.63.93,23.93,0,3.68-1.54,6.44-4.62,8.27-3.68.62-5.81.01-6.41-1.83l-9.21-25.76-7.38-11.03c.62-6.14,4-9.82,10.14-11.03Z"/>
  <path class="cls-1" d="M240.07,16.7c3.83,1.27,6.37.94,7.64-.97,7.63,1.91,11.44,4.15,11.44,6.71.65,5.07-1.25,8.56-5.7,10.47-5.74-2.53-10.51.34-14.31,8.61l2.87,7.6c2.53.65,6.98-.3,13.34-2.83l8.57.93c1.91,7.01-5.39,12.41-21.92,16.21-7.01-1.27-12.73-4.12-17.18-8.57l-3.84-10.51c0-5.07,4.14-13.65,12.41-25.76l6.67-1.9Z"/>
  <path class="cls-1" d="M269.18,13.75l3.06.78-.75,3.09-3.09-.78.78-3.09ZM270.75,2.72l2.31.78-3.39,1.27.34.3.75-2.35ZM276.9,24.56l6.93,2.31,5.4,7.72-3.09,15.43-1.57,2.31c1.57,2.56.02,7.18-4.62,13.87l-5.37-.78-4.66-6.15,2.31-12.34-1.53-10.81.78-7.72,5.4-3.84ZM273.8,19.94h1.53v1.53h-1.53v-1.53ZM281.52,7.6c4.1,0,6.92,1.28,8.46,3.84,1.54,5.14-.26,9.01-5.4,11.59-5.12,0-8.2-2.06-9.24-6.19,0-5.14,2.06-8.22,6.19-9.24ZM290.24,45.02l1.49-1.19-.89-1.19-1.79.6,1.19,1.79ZM293.07,26.87l2.31.78-.78,2.31-2.31-.78.78-2.31Z"/>
  <path class="cls-1" d="M300.27,44.69c13.32,4.25,20.88,5.16,22.7,2.72l-.89-5.44-10.92-2.72c-7.88-5.44-10-10.9-6.37-16.36.62-3.03,6.39-6.36,17.29-9.99h4.55l2.72,1.83,14.54,3.62,3.62,3.65c.62,1.81-1.49,4.53-6.34,8.16l-5.48-.89c0-3.03-2.72-3.94-8.16-2.72v3.62c7.88,3.03,12.11,5.45,12.71,7.27,3.65,5.47,4.87,10.92,3.65,16.36l-7.27,8.16-10.92,3.65-8.16-1.83-21.8-10.88c0-4.25,1.52-6.98,4.55-8.2Z"/>
  <path class="cls-1" d="M350.17,34.7h1.9v1.9h-1.9v-1.9ZM380.7,19.46h5.74l10.47,7.6.97,2.87-1.9,11.44c-5.09,3.83-7.64,6.7-7.64,8.61l3.8,2.87,8.61,1.9c1.27,2.53.94,5.08-.97,7.64l-9.54,3.8c-12.08.65-22.57-1.58-31.5-6.67-4.45-3.83-6.67-7.96-6.67-12.41.65-5.09,4.15-11.13,10.51-18.11l18.11-9.54ZM353.04,31.83h1.9v1.94h-1.9v-1.94ZM355.91,24.23l2.83.93-.93,2.87-2.87-.97.97-2.83ZM370.23,39.47v1.9l4.77.97v1.9h3.8l.97-2.87,5.7-2.83v-2.87l-3.8-.97v-1.9l-11.44,6.67ZM396.91,49.01l2.87.97-.93,2.87-2.87-.97.93-2.87ZM399.78,37.57l3.84.97-.97,3.8-3.8-.97.93-3.8Z"/>
  <path class="cls-1" d="M410,44.69c13.32,4.25,20.88,5.16,22.7,2.72l-.89-5.44-10.92-2.72c-7.88-5.44-10-10.9-6.37-16.36.62-3.03,6.39-6.36,17.29-9.99h4.55l2.72,1.83,14.54,3.62,3.62,3.65c.62,1.81-1.49,4.53-6.34,8.16l-5.48-.89c0-3.03-2.72-3.94-8.16-2.72v3.62c7.88,3.03,12.11,5.45,12.71,7.27,3.65,5.47,4.87,10.92,3.65,16.36l-7.27,8.16-10.92,3.65-8.16-1.83-21.8-10.88c0-4.25,1.52-6.98,4.55-8.2Z"/>
</svg>