<?xml version="1.0" encoding="UTF-8"?>
<svg id="Layer_1" data-name="Layer 1" xmlns="http://www.w3.org/2000/svg" viewBox="0 0 377.83 68.26">
  <defs>
    <style>
      .cls-1 {
        fill: #754c29;
      }
    </style>
  </defs>
  <path class="cls-1" d="M2.96,40.93c1.97,1.17,4.14.78,6.51-1.19l-1.19-4.72,1.79-5.91,1.17-10.06c-.78-3.54-1.35-6.98-1.71-10.3l-2.6.43c-1.74-.87-2.68-2.02-2.82-3.47.43-2.91,4.39-4.56,11.88-4.96l.57.6C21.27-.22,24.63-.42,26.6.75l3.55,1.76c8.26,9.85,11.21,16.55,8.84,20.09,1.57,9.45-.2,15.75-5.31,18.9-1.57,1.97-11.03,4.14-28.36,6.51-3.54,0-5.31-.79-5.31-2.36.8-3.15,1.78-4.72,2.96-4.72ZM2.96,34.43l2.36.6-.57,2.36-2.36-.6.57-2.36ZM20.36,33.48c0,1.74.43,2.68,1.3,2.82,1.45.87,4.12-.14,8.03-3.04l.22-4.77c.14-10.84-2.02-17.13-6.51-18.87-1.74.14-3.54.43-5.42.87,1.88,3.04,3.04,9.33,3.47,18.87l-1.08,4.12ZM36.03.75l2.39.6-.6,2.36-2.36-.6.57-2.36ZM40.78,5.47l3.52,1.19-1.76,4.12-2.36-.57.6-4.74Z"/>
  <path class="cls-1" d="M41.83,25.1h1.38v1.38h-1.38v-1.38ZM64.04,14.01h4.18l7.62,5.53.7,2.09-1.38,8.32c-3.71,2.78-5.56,4.87-5.56,6.26l2.77,2.09,6.26,1.38c.92,1.84.69,3.7-.7,5.56l-6.94,2.77c-8.78.47-16.42-1.15-22.91-4.85-3.24-2.78-4.85-5.79-4.85-9.03.47-3.71,3.02-8.1,7.65-13.18l13.18-6.94ZM43.92,23.01h1.38v1.41h-1.38v-1.41ZM46.01,17.48l2.06.68-.68,2.09-2.09-.7.7-2.06ZM56.42,28.57v1.38l3.47.7v1.38h2.77l.7-2.09,4.15-2.06v-2.09l-2.77-.7v-1.38l-8.32,4.85ZM75.83,35.51l2.09.7-.68,2.09-2.09-.7.68-2.09ZM77.92,27.19l2.79.7-.7,2.77-2.77-.7.68-2.77Z"/>
  <path class="cls-1" d="M85.35,32.37c9.69,3.09,15.19,3.75,16.51,1.98l-.65-3.96-7.94-1.98c-5.73-3.96-7.28-7.93-4.64-11.9.45-2.21,4.65-4.63,12.58-7.27h3.31l1.98,1.33,10.57,2.63,2.63,2.66c.45,1.32-1.08,3.3-4.61,5.94l-3.99-.65c0-2.21-1.98-2.86-5.94-1.98v2.63c5.73,2.21,8.81,3.97,9.25,5.29,2.66,3.98,3.54,7.94,2.66,11.9l-5.29,5.94-7.94,2.66-5.94-1.33-15.86-7.92c0-3.09,1.1-5.08,3.31-5.96Z"/>
  <path class="cls-1" d="M136.78,12.01c2.78.92,4.64.69,5.56-.7,5.55,1.39,8.32,3.02,8.32,4.88.47,3.69-.91,6.23-4.15,7.62-4.18-1.84-7.65.24-10.41,6.26l2.09,5.53c1.84.47,5.08-.22,9.71-2.06l6.23.68c1.39,5.1-3.92,9.03-15.94,11.79-5.1-.92-9.26-3-12.5-6.24l-2.79-7.65c0-3.69,3.01-9.93,9.03-18.73l4.85-1.38Z"/>
  <path class="cls-1" d="M164.95,11.9l11.36,1.33c2.24-1.79,5.37-2.68,9.38-2.68,4.01.9,6.91,2.69,8.7,5.37v3.33c-3.13,3.56-8.93,5.34-17.41,5.34-.89,8.48-.66,14.28.68,17.41,0,2.68-1.12,4.68-3.36,6.02-2.68.45-4.23,0-4.66-1.33l-6.7-18.73-5.37-8.03c.45-4.46,2.91-7.14,7.37-8.03Z"/>
  <path class="cls-1" d="M197.86,9.86l2.22.57-.54,2.25-2.25-.57.57-2.25ZM199,1.84l1.68.57-2.47.92.24.22.54-1.71ZM203.48,17.73l5.04,1.68,3.93,5.61-2.25,11.22-1.14,1.68c1.14,1.86.02,5.22-3.36,10.09l-3.9-.57-3.39-4.47,1.68-8.97-1.11-7.86.57-5.61,3.93-2.79ZM201.23,14.36h1.11v1.11h-1.11v-1.11ZM206.84,5.39c2.98,0,5.03.93,6.15,2.79,1.12,3.74-.19,6.55-3.93,8.43-3.72,0-5.96-1.5-6.72-4.5,0-3.74,1.5-5.98,4.5-6.72ZM213.18,32.61l1.08-.87-.65-.87-1.3.43.87,1.3ZM215.24,19.41l1.68.57-.57,1.68-1.68-.57.57-1.68Z"/>
  <path class="cls-1" d="M227.04,13.39l10.47,1.95,3.25,3.28,7.84,1.95,3.28,4.58c-.87,5.66-2.61,10.45-5.23,14.37-3.49,3.92-8.93,6.32-16.32,7.18l-.65,3.25,2.6,8.51c0,4.34-2.83,7.6-8.49,9.79h-1.3c-3.92-.43-5.23-3.26-3.93-8.49,1.3-1.75,1.74-4.37,1.3-7.84l2.63-3.28c1.74-3.92,0-10.46-5.23-19.6.43-6.96,3.7-12.18,9.79-15.67ZM229.02,31.69c-.43,2.6,0,3.9,1.3,3.9,4.36,1.3,7.4,0,9.14-3.9.43-.89-.22-2.85-1.95-5.88h-4.58l-3.9,5.88Z"/>
  <path class="cls-1" d="M265.89.29l3.61.6c2.42.4,4.03,4.83,4.83,13.28l5.45,4.2-.6,3.04c-.81,2.01-3.43,2.61-7.86,1.82l-1.82,2.41c-1.61,3.22-1.61,5.63,0,7.24l6.64,5.42c-1.21,6.43-6.44,9.45-15.7,9.06-2.8.4-4.81-.81-6.02-3.63l1.19-11.47,1.82-3.61,1.82-8.46-3.01-3.61,4.83-4.23c-.81-5.64.8-9.66,4.83-12.06Z"/>
  <path class="cls-1" d="M283.54,9.86l2.22.57-.54,2.25-2.25-.57.57-2.25ZM284.68,1.84l1.68.57-2.47.92.24.22.54-1.71ZM289.15,17.73l5.04,1.68,3.93,5.61-2.25,11.22-1.14,1.68c1.14,1.86.02,5.22-3.36,10.09l-3.9-.57-3.39-4.47,1.68-8.97-1.11-7.86.57-5.61,3.93-2.79ZM286.9,14.36h1.11v1.11h-1.11v-1.11ZM292.51,5.39c2.98,0,5.03.93,6.15,2.79,1.12,3.74-.19,6.55-3.93,8.43-3.72,0-5.96-1.5-6.72-4.5,0-3.74,1.5-5.98,4.5-6.72ZM298.86,32.61l1.08-.87-.65-.87-1.3.43.87,1.3ZM300.92,19.41l1.68.57-.57,1.68-1.68-.57.57-1.68Z"/>
  <path class="cls-1" d="M303.49,21.11l1.08-.87-.65,1.08-.22-.87-.22.65ZM304.79,15.04l.41-.22v1.36h-1.36l.95-1.14ZM304.52,16.53l2.03.68-.68,2.03-2.03-.68.68-2.03ZM308.21,19.35l2.03.68,3.36-5.42,5.42-3.39,16.27,7.46,3.39,6.78c-.45,13.09-4.74,20.53-12.88,22.34-5.87.9-10.84-.23-14.88-3.39-4.07-2.71-6.33-5.65-6.78-8.81v-4.04l5.42-9.49-2.03-.68.68-2.03ZM307.23,23.64l2.03.68-.68,2.03-2.03-.68.68-2.03ZM314.01,4.68h1.33v1.36h-1.33v-1.36ZM315.34.62h1.36v1.36h-1.36V.62ZM317.51,24.99c-.9,1.81,0,5.64,2.71,11.5h3.39l2.71-2.03-.68-8.11-2.71-3.39c-1.36-.45-3.16.23-5.42,2.03ZM319.41,6.69l2.03.68-.68,2.03-2.03-.68.68-2.03Z"/>
  <path class="cls-1" d="M351.26,15.58l4.83,2.41,3.63-4.83,4.23-2.41c4.83.4,8.04,3.42,9.65,9.06l3.01,18.71,1.22,2.41-2.41,3.63c-3.22-.42-5.43-1.63-6.64-3.63l-1.82-3.01c.4-6.04,0-9.06-1.22-9.06-.8-2.42-2.6-2.42-5.42,0v6.64c4.03,6.43,1.62,10.46-7.24,12.06l-5.42-.6c-3.22-2.42-4.83-5.04-4.83-7.86l3.61-7.24c-.8-1.61.21-6.63,3.01-15.07l1.82-1.22Z"/>
</svg>