<?xml version="1.0" encoding="UTF-8"?>
<svg id="Layer_1" data-name="Layer 1" xmlns="http://www.w3.org/2000/svg" viewBox="0 0 431.85 100.21">
  <defs>
    <style>
      .cls-1 {
        fill: #754c29;
      }
    </style>
  </defs>
  <path class="cls-1" d="M0,26.27c1.26-1.23,2.5-1.23,3.74,0l-.92,2.81-2.81-.92v-1.89ZM28.03,9.44h6.55l2.81,1.89,1.85,5.58,5.62,4.7,4.66-1.89,4.7-5.58c0-4.36,1.55-7.48,4.66-9.36l10.28.92,6.55,10.28,1.89,7.47,3.74,6.55-.96,7.47c5.62,11.22,7.5,18.07,5.62,20.56v1.89l-4.66,4.66c-4.98.64-7.47-.28-7.47-2.77l-2.81-14.06-4.7-7.47c1.26-2.49-.29-5.29-4.66-8.39l-1.89.92c0,9.34-2.8,14.95-8.39,16.83l-6.55-1.89c-1.23-7.47-4.97-12.76-11.21-15.87l-2.81.92-2.81,12.17c1.26,10.58,1.26,17.43,0,20.56l-9.36,4.66c-9.34-.62-14.94-3.74-16.79-9.36l.92-5.58,9.36-12.17,2.77-7.47c-1.85-2.49.03-9.04,5.62-19.64,2.49-.62,4.04-2.48,4.66-5.58l2.81-.96ZM6.55,37.47l2.81.96c.62,1.87-.32,3.74-2.81,5.58l-2.81-.92,2.81-5.62ZM78.52,11.33c3.11-.62,4.98,0,5.62,1.85.62,3.13-.01,5.01-1.89,5.62-3.11.62-4.98-.01-5.62-1.89-.62-3.11.01-4.97,1.89-5.58Z"/>
  <path class="cls-1" d="M92.86,30.36l1.61-1.29-.96,1.61-.32-1.29-.32.96ZM94.79,21.37l.6-.32v2.01h-2.01l1.41-1.69ZM94.39,23.58l3.01,1-1,3.01-3.01-1,1-3.01ZM99.85,27.75l3.01,1,4.98-8.03,8.03-5.02,24.1,11.05,5.02,10.04c-.67,19.39-7.03,30.42-19.08,33.1-8.7,1.34-16.05-.33-22.05-5.02-6.02-4.02-9.37-8.37-10.04-13.05v-5.98l8.03-14.06-3.01-1,1-3.01ZM98.4,34.1l3.01,1-1,3.01-3.01-1,1-3.01ZM108.44,6.02h1.97v2.01h-1.97v-2.01ZM110.41,0h2.01v2.01h-2.01V0ZM113.63,36.11c-1.34,2.68,0,8.35,4.02,17.03h5.02l4.02-3.01-1-12.01-4.02-5.02c-2.01-.67-4.69.33-8.03,3.01ZM116.44,9l3.01,1-1,3.01-3.01-1,1-3.01Z"/>
  <path class="cls-1" d="M170.74,16.87c4.12,1.37,6.87,1.02,8.23-1.04,8.22,2.06,12.33,4.47,12.33,7.23.7,5.46-1.35,9.22-6.15,11.29-6.19-2.73-11.33.36-15.42,9.28l3.09,8.19c2.73.7,7.52-.32,14.38-3.05l9.24,1c2.06,7.55-5.81,13.37-23.62,17.47-7.55-1.37-13.72-4.44-18.52-9.24l-4.14-11.33c0-5.46,4.46-14.71,13.37-27.75l7.19-2.05Z"/>
  <path class="cls-1" d="M220.42,0l2.01,1c-1.34,1.34-1.34,7.68,0,19.04-3.35,4.69-4.02,8.37-2.01,11.05,5.36,2.01,13.39,0,24.1-6.02,4.69-.67,7.03,0,7.03,2.01l-1,5.02-3.01,3.01c-5.36.67-8.03,1.67-8.03,3.01-1.34,4.02-1.34,7.03,0,9.04,8.7,6.67,13.71,9.67,15.02,9v7.03l-1.97,1-10.04-1-16.07-11.05h-5.02l-7.03,4.02-1.97,11.05c-2.68,3.35-5.36,4.35-8.03,3.01l-4.02-5.02v-10.04c2.68-2.68,4.02-12.04,4.02-28.08l7.03-19.04,9-8.03Z"/>
  <path class="cls-1" d="M315.25,4.42c6.61,0,10.52,1.51,11.73,4.54l-.88,23.5c-1.82.59-2.73,5.1-2.73,13.54l11.77,9.96c9.02-1.82,14.74-3.94,17.15-6.35l5.42-9.92,1.81-.92v-2.69h-2.69l.88-2.73c-3.61-.59-5.11-2.09-4.5-4.5l4.5-12.65c-1.2-6.64.31-10.86,4.54-12.65,4.82-.62,8.13-.01,9.92,1.81l2.73,2.69,1.81,6.35v9.04c-2.41,6.02-3.92,13.25-4.54,21.69-7.82,13.84-18.36,21.68-31.61,23.5-7.85-.62-11.77-1.53-11.77-2.73l-13.54-11.73c-1.82-.62-2.42-4.83-1.81-12.65l-2.73-1.81c0-3.03,1.2-4.54,3.61-4.54l1.81-8.11-2.69-.92,1.81-.88c-1.2-1.2-1.2-3.92,0-8.15-4.82-5.41-4.82-9.63,0-12.65ZM310.99,9.64h1.81v1.81h-1.81v-1.81ZM315.53,10.56l3.61.88-.92,3.61-3.61-.88.92-3.61Z"/>
  <path class="cls-1" d="M395.06,18.92l15.5,2.89,4.82,4.86,11.61,2.89,4.86,6.79c-1.29,8.38-3.87,15.48-7.75,21.29-5.17,5.81-13.23,9.36-24.18,10.64l-.96,4.82,3.86,12.61c0,6.43-4.19,11.26-12.57,14.5h-1.93c-5.81-.64-7.75-4.83-5.82-12.57,1.93-2.6,2.57-6.47,1.93-11.61l3.9-4.86c2.57-5.81-.01-15.49-7.75-29.04.64-10.31,5.48-18.05,14.5-23.22ZM397.99,46.03c-.64,3.86,0,5.78,1.93,5.78,6.45,1.93,10.96,0,13.54-5.78.64-1.31-.32-4.22-2.89-8.72h-6.79l-5.78,8.72Z"/>
</svg>