<?xml version="1.0" encoding="UTF-8"?>
<svg id="Layer_1" data-name="Layer 1" xmlns="http://www.w3.org/2000/svg" viewBox="0 0 355.54 166.07">
  <defs>
    <style>
      .cls-1 {
        fill: #754c29;
      }
    </style>
  </defs>
  <path class="cls-1" d="M58.15.24c4.05-.79,9.29.42,15.72,3.63,7.26,8.06,13.32,12.9,18.16,14.53l4.82,9.64c0,6.47-3.21,10.92-9.64,13.34h-6.07c-8.47-2.05-16.05-5.41-22.73-10.08l-6.51-2.5c.96-1.29-3.8-1.94-14.28-1.94-4.84,4.05-8.1,16.55-9.77,37.51l3.51,8.52,2,8.52,10.52,6.51,10.02,2,23.54-2,7.33,11.52c-.79,8.06-8.06,12.9-21.79,14.53-12.9.79-25.8-2.02-38.7-8.45C14.59,98.23,6.53,87.34.1,72.81c-.83-14.53,3.59-31.87,13.28-52.04l20.6-14.53L58.15.24ZM10.93,3.87l4.88,1.19-1.25,4.82-4.82-1.19,1.19-4.82ZM35.17,31.67l4.82,1.25-1.19,4.82-4.82-1.25,1.19-4.82ZM88.39.24l6.07,2.38-1.25,6.07-8.45-2.44c.79-4.01,2-6.01,3.63-6.01ZM104.11,7.5l4.82,1.19-1.19,4.82-4.82-1.19,1.19-4.82Z"/>
  <path class="cls-1" d="M155.46,46.13h11.77l7.39,7.39-1.44,26.55,2.94,5.89c6.85-1,12.25.96,16.22,5.89,0,5.89-1.98,9.81-5.95,11.77l-23.54-1.44-26.55,11.77c-17.7-1-28.99-7.89-33.88-20.66l1.44-17.66,19.16-17.72h26.55c3.92-1.96,4.4-4.4,1.44-7.33l4.45-4.45ZM103.42,46.13h2.94v2.94h-2.94v-2.94ZM106.36,37.31h2.94v2.94h-2.94v-2.94ZM110.81,50.58l7.33,1.44-1.44,7.39-7.39-1.5,1.5-7.33ZM132.91,80.07c0,4.88,2.46,8.31,7.39,10.27l8.83-2.94c.96-4.88-1.98-8.33-8.83-10.33l-7.39,3.01ZM178.62,74.13l4.38,1.5-1.44,4.45-4.45-1.5,1.5-4.45Z"/>
  <path class="cls-1" d="M220.14,33.99l24.17,4.51,7.51,7.58,18.1,4.51,7.58,10.58c-2,13.07-6.03,24.13-12.09,33.19-8.06,9.06-20.62,14.59-37.7,16.59l-1.5,7.51,6.01,19.66c0,10.02-6.53,17.55-19.6,22.61h-3.01c-9.06-1-12.09-7.54-9.08-19.6,3.01-4.05,4.01-10.08,3.01-18.1l6.07-7.58c4.01-9.06-.02-24.15-12.09-45.27,1-16.07,8.54-28.14,22.61-36.19ZM224.71,76.25c-1,6.01,0,9.02,3.01,9.02,10.06,3.01,17.09,0,21.1-9.02,1-2.05-.5-6.57-4.51-13.59h-10.58l-9.02,13.59Z"/>
  <path class="cls-1" d="M282.7,103.62h2.57v2.57h-2.57v-2.57ZM286.58,89.34c4.3-.88,6.89-.02,7.76,2.57.88,4.34,0,6.93-2.63,7.76-4.3.88-6.89.02-7.76-2.57-.83-4.3.04-6.89,2.63-7.76ZM293.03,62.17l16.85,2.57c1.71,4.3,5.18,7.33,10.39,9.08l-1.31,5.13,9.08,10.39h5.13l10.39-27.18h3.88l2.57,3.88,5.2,2.57c.88,4.3.02,6.89-2.57,7.76l-6.51-1.31-2.57,20.73-2.57,1.31,1.25,9.08-5.13,10.33-2.63,20.73-2.57,3.88c1.71,12.98-1.75,21.19-10.39,24.61-6.05.88-9.94.02-11.65-2.57l2.57-22.04,6.51-21.98,3.88-5.2-1.31-6.45-12.96-3.88-21.98-33.69,6.45-7.76ZM299.54,103.62l3.88,1.25-1.31,3.88-3.88-1.25,1.31-3.88ZM330.6,56.97h2.57v2.57h-2.57v-2.57ZM330.6,71.18h2.57v2.63h-2.57v-2.63ZM351.33,55.65l3.88,1.31-1.31,3.88-3.88-1.31,1.31-3.88Z"/>
</svg>