<?xml version="1.0" encoding="UTF-8"?>
<svg id="Layer_1" data-name="Layer 1" xmlns="http://www.w3.org/2000/svg" viewBox="0 0 422.59 74.7">
  <defs>
    <style>
      .cls-1 {
        fill: #754c29;
      }
    </style>
  </defs>
  <path class="cls-1" d="M.66,34.54l2.65.66-.66,2.65-2.65-.66.66-2.65ZM15.32,3.37c2.22-.46,5.99.2,11.29,1.97,9.28-2.21,15.03-.87,17.25,3.99.44,1.77-.23,3.54-2,5.3-3.1,2.21-5.31,2.87-6.64,2-1.33,2.21-2.88,3.53-4.65,3.96l1.34,17.25c2.64,2.22,6.4,3.77,11.26,4.65,3.54,3.97,3.54,7.07,0,9.3l-8.61-2h-3.31c-2.22,1.77-5.11,2.65-8.64,2.65-4.41-1.77-7.95-1.77-10.61,0l-1.31-1.34h-5.33l-2.65-1.31-1.97-2.65v-5.3l3.31-3.31c5.74-.46,9.06-1.79,9.95-3.99l-.66-4.65c2.64-3.1,3.74-5.53,3.31-7.3-4.43-4.41-7.97-7.28-10.61-8.61-.89-.89-.68-3.55.66-7.96l8.61-2.65ZM29.83,1.37h2v2h-2v-2Z"/>
  <path class="cls-1" d="M58.94,16.81l5.3,2.65,3.99-5.3,4.65-2.65c5.3.44,8.84,3.75,10.61,9.95l3.31,20.56,1.34,2.65-2.65,3.99c-3.54-.46-5.97-1.79-7.3-3.99l-2-3.31c.44-6.63,0-9.95-1.34-9.95-.87-2.66-2.86-2.66-5.96,0v7.3c4.43,7.07,1.78,11.49-7.96,13.26l-5.96-.66c-3.54-2.66-5.3-5.54-5.3-8.64l3.96-7.96c-.87-1.77.23-7.29,3.31-16.57l2-1.34Z"/>
  <path class="cls-1" d="M94.22,35.25c10.65,3.4,16.7,4.12,18.15,2.18l-.72-4.35-8.73-2.18c-6.3-4.35-8-8.71-5.1-13.08.5-2.42,5.11-5.09,13.83-7.99h3.64l2.18,1.46,11.62,2.89,2.89,2.92c.5,1.45-1.19,3.63-5.07,6.53l-4.38-.72c0-2.42-2.18-3.15-6.53-2.18v2.89c6.3,2.42,9.68,4.36,10.16,5.81,2.92,4.37,3.89,8.73,2.92,13.08l-5.81,6.53-8.73,2.92-6.53-1.46-17.43-8.7c0-3.4,1.21-5.58,3.64-6.56Z"/>
  <path class="cls-1" d="M146.72,14.39l11.5,2.15,3.58,3.61,8.61,2.15,3.61,5.04c-.95,6.22-2.87,11.48-5.75,15.79-3.83,4.31-9.81,6.94-17.94,7.9l-.72,3.58,2.86,9.36c0,4.77-3.11,8.35-9.33,10.76h-1.43c-4.31-.48-5.75-3.59-4.32-9.33,1.43-1.93,1.91-4.8,1.43-8.61l2.89-3.61c1.91-4.31,0-11.49-5.75-21.54.48-7.65,4.06-13.39,10.76-17.22ZM148.9,34.51c-.48,2.86,0,4.29,1.43,4.29,4.79,1.43,8.13,0,10.04-4.29.48-.97-.24-3.13-2.15-6.47h-5.04l-4.29,6.47Z"/>
  <path class="cls-1" d="M178.07,10.52l2.44.63-.6,2.47-2.47-.63.63-2.47ZM179.32,1.7l1.85.63-2.71,1.01.27.24.6-1.88ZM184.24,19.16l5.54,1.85,4.32,6.17-2.47,12.34-1.25,1.85c1.25,2.05.02,5.74-3.69,11.08l-4.29-.63-3.72-4.92,1.85-9.86-1.22-8.64.63-6.17,4.32-3.07ZM181.76,15.46h1.22v1.22h-1.22v-1.22ZM187.93,5.6c3.28,0,5.53,1.02,6.76,3.07,1.23,4.11-.21,7.2-4.32,9.27-4.09,0-6.56-1.65-7.39-4.95,0-4.11,1.65-6.58,4.95-7.39ZM194.9,35.52l1.19-.95-.72-.95-1.43.48.95,1.43ZM197.17,21.01l1.85.63-.63,1.85-1.85-.63.63-1.85Z"/>
  <path class="cls-1" d="M207.69,12.75l12.49,1.46c2.46-1.97,5.9-2.95,10.31-2.95,4.41.99,7.6,2.96,9.57,5.9v3.67c-3.44,3.91-9.81,5.87-19.13,5.87-.97,9.32-.73,15.69.74,19.13,0,2.94-1.23,5.15-3.69,6.62-2.94.5-4.65,0-5.13-1.46l-7.36-20.59-5.9-8.82c.5-4.91,3.2-7.85,8.1-8.82Z"/>
  <path class="cls-1" d="M267.55,20.17h5.6l3.52,3.52-.69,12.63,1.4,2.8c3.26-.48,5.83.46,7.72,2.8,0,2.8-.94,4.67-2.83,5.6l-11.2-.69-12.63,5.6c-8.42-.48-13.8-3.75-16.12-9.83l.69-8.4,9.12-8.43h12.63c1.87-.93,2.1-2.1.69-3.49l2.12-2.12ZM242.79,20.17h1.4v1.4h-1.4v-1.4ZM244.19,15.97h1.4v1.4h-1.4v-1.4ZM246.31,22.29l3.49.69-.69,3.52-3.52-.72.72-3.49ZM256.82,36.32c0,2.32,1.17,3.95,3.52,4.89l4.2-1.4c.46-2.32-.94-3.96-4.2-4.92l-3.52,1.43ZM278.58,33.49l2.09.72-.69,2.12-2.12-.72.72-2.12Z"/>
  <path class="cls-1" d="M299.55,0l3.96.66c2.66.44,4.43,5.3,5.3,14.6l5.99,4.62-.66,3.34c-.89,2.21-3.77,2.87-8.64,2l-2,2.65c-1.77,3.54-1.77,6.19,0,7.96l7.3,5.96c-1.33,7.07-7.08,10.39-17.25,9.95-3.08.44-5.28-.89-6.62-3.99l1.31-12.6,2-3.96,2-9.3-3.31-3.96,5.3-4.65c-.89-6.2.87-10.62,5.3-13.26Z"/>
  <path class="cls-1" d="M318.95,10.52l2.44.63-.6,2.47-2.47-.63.63-2.47ZM320.2,1.7l1.85.63-2.71,1.01.27.24.6-1.88ZM325.12,19.16l5.54,1.85,4.32,6.17-2.47,12.34-1.25,1.85c1.25,2.05.02,5.74-3.69,11.08l-4.29-.63-3.72-4.92,1.85-9.86-1.22-8.64.63-6.17,4.32-3.07ZM322.65,15.46h1.22v1.22h-1.22v-1.22ZM328.81,5.6c3.28,0,5.53,1.02,6.76,3.07,1.23,4.11-.21,7.2-4.32,9.27-4.09,0-6.56-1.65-7.39-4.95,0-4.11,1.65-6.58,4.95-7.39ZM335.79,35.52l1.19-.95-.72-.95-1.43.48.95,1.43ZM338.05,21.01l1.85.63-.63,1.85-1.85-.63.63-1.85Z"/>
  <path class="cls-1" d="M340.88,22.88l1.19-.95-.72,1.19-.24-.95-.24.72ZM342.31,16.21l.45-.24v1.49h-1.49l1.04-1.25ZM342.02,17.85l2.23.74-.74,2.23-2.23-.74.74-2.23ZM346.07,20.95l2.23.74,3.69-5.96,5.96-3.72,17.88,8.19,3.72,7.45c-.5,14.38-5.21,22.57-14.15,24.55-6.46.99-11.91-.25-16.36-3.72-4.47-2.98-6.95-6.21-7.45-9.68v-4.44l5.96-10.43-2.23-.74.74-2.23ZM344.99,25.66l2.23.74-.74,2.23-2.23-.74.74-2.23ZM352.44,4.83h1.46v1.49h-1.46v-1.49ZM353.9.36h1.49v1.49h-1.49V.36ZM356.29,27.15c-.99,1.99,0,6.2,2.98,12.63h3.72l2.98-2.23-.74-8.91-2.98-3.72c-1.49-.5-3.48.25-5.96,2.23ZM358.37,7.03l2.23.74-.74,2.23-2.23-.74.74-2.23Z"/>
  <path class="cls-1" d="M393.39,16.81l5.3,2.65,3.99-5.3,4.65-2.65c5.3.44,8.84,3.75,10.61,9.95l3.31,20.56,1.34,2.65-2.65,3.99c-3.54-.46-5.97-1.79-7.3-3.99l-2-3.31c.44-6.63,0-9.95-1.34-9.95-.87-2.66-2.86-2.66-5.96,0v7.3c4.43,7.07,1.78,11.49-7.96,13.26l-5.96-.66c-3.54-2.66-5.3-5.54-5.3-8.64l3.96-7.96c-.87-1.77.23-7.29,3.31-16.57l2-1.34Z"/>
</svg>