<?xml version="1.0" encoding="UTF-8"?>
<svg id="Layer_1" data-name="Layer 1" xmlns="http://www.w3.org/2000/svg" xmlns:xlink="http://www.w3.org/1999/xlink" viewBox="0 0 792 612">
  <defs>
    <style>
      .cls-1 {
        fill: #231f20;
      }

      .cls-2 {
        fill: none;
      }

      .cls-3 {
        fill: url(#radial-gradient);
      }

      .cls-4 {
        fill: #004f86;
      }

      .cls-5 {
        fill: url(#radial-gradient-2);
      }

      .cls-6 {
        fill: #006696;
      }

      .cls-7 {
        fill: #67c9f2;
      }

      .cls-8 {
        clip-path: url(#clippath);
      }

      .cls-9 {
        fill: #00335e;
      }
    </style>
    <clipPath id="clippath">
      <rect class="cls-2" width="792" height="612"/>
    </clipPath>
    <radialGradient id="radial-gradient" cx="226.7" cy="203" fx="226.7" fy="196.16" r="515.05" gradientTransform="translate(43.43 -25.27) scale(1.43 1.05)" gradientUnits="userSpaceOnUse">
      <stop offset=".11" stop-color="#d6c228"/>
      <stop offset=".15" stop-color="#c99f24"/>
      <stop offset=".21" stop-color="#bb7a21"/>
      <stop offset=".24" stop-color="#b66c20"/>
      <stop offset=".24" stop-color="#b56b20" stop-opacity="1"/>
      <stop offset=".35" stop-color="#a55528" stop-opacity=".93"/>
      <stop offset=".41" stop-color="#9f4d2b" stop-opacity=".9"/>
      <stop offset=".44" stop-color="#82513e" stop-opacity=".87"/>
      <stop offset=".5" stop-color="#4a5962" stop-opacity=".82"/>
      <stop offset=".56" stop-color="#215f7d" stop-opacity=".78"/>
      <stop offset=".6" stop-color="#09638e" stop-opacity=".75"/>
      <stop offset=".63" stop-color="#006594" stop-opacity=".74"/>
      <stop offset=".63" stop-color="#006494" stop-opacity=".73"/>
      <stop offset=".64" stop-color="#006494" stop-opacity=".7"/>
      <stop offset=".81" stop-color="#004f86" stop-opacity=".6"/>
    </radialGradient>
    <radialGradient id="radial-gradient-2" cx="391.06" cy="129.08" fx="299.45" fy="-73.25" r="625.38" gradientUnits="userSpaceOnUse">
      <stop offset=".1" stop-color="#d6c228" stop-opacity=".5"/>
      <stop offset=".17" stop-color="#c49223" stop-opacity=".56"/>
      <stop offset=".24" stop-color="#b66c20" stop-opacity=".6"/>
      <stop offset=".41" stop-color="#9f4d2b" stop-opacity=".5"/>
      <stop offset=".45" stop-color="#775245" stop-opacity=".56"/>
      <stop offset=".53" stop-color="#365c6f" stop-opacity=".66"/>
      <stop offset=".59" stop-color="#0e628a" stop-opacity=".72"/>
      <stop offset=".63" stop-color="#006594" stop-opacity=".74"/>
      <stop offset=".63" stop-color="#006494" stop-opacity=".73"/>
      <stop offset=".64" stop-color="#006494" stop-opacity=".7"/>
      <stop offset=".81" stop-color="#004f86" stop-opacity=".6"/>
    </radialGradient>
  </defs>
  <g class="cls-8">
    <g>
      <rect class="cls-7" x="-398.42" y="-143.22" width="1494.82" height="468.4"/>
      <ellipse class="cls-3" cx="389.03" cy="163.92" rx="516.92" ry="378.17"/>
      <path class="cls-6" d="M-326.78,316.79s7.73-8.21,13.99-12.39c6.27-4.19,18.61-17.85,18.61-17.85,15.69-9.81,28.18-19.51,28.18-19.51,0,0,15.69-9.81,20.45-11.3,4.76-1.49,7.91-2.92,14.27-4.47,6.36-1.55,4.8-.17,12.81-.45s-6.27,4.19,8.01-.28,12.58-7.06,18.89-9.92,13.99-12.39,13.99-12.39l28.55-8.94s9.52-2.98,14.27-4.47c4.76-1.49,11.07-4.36,15.88-4.53s11.1-6.16,11.1-6.16l10.85,3.29s8.24-4.8,14.69-3.71l6.45,1.09s12.63-5.74,17.38-7.23l14.09-9.75,12.44-11.02s7.77-6.89,7.63-10.85-3.39-5.17-.37-10.57,9.14-13.55,9.14-13.55l6.03-10.79,12.58-7.06,12.63-5.74c8.24,6.32,6.85,10.25,11.68,12.81,16.34,8.68,21.15,8.51,27.6,9.6s-3.25-1.21,6.45,1.09,24.07.47,28.88.3,17.62-.62,23.98-2.17c6.36-1.55,25.53-3.55,25.53-3.55l12.86.87,14.55,3.45c4.85,1.15,14.27-4.47,14.27-4.47,0,0,9.7-3.4,14.37-1.83,17.85,5.98,17.9,7.3,25.86,5.7,7.96-1.6,11.12-3.04,19.17-2s7.96-1.6,16.11,2.08c8.15,3.68,16.34,8.68,16.34,8.68l11.26.92,36.88.02,15.78-7.17,14.41-.51c19.5,7.24,22.75,8.45,38.81,9.21,16.06.75,27.41,4.32,35.28.08s9.19-12.23,20.4-12.62c11.21-.4,19.13-3.32,23.98-2.17,4.85,1.15,19.31,1.96,19.31,1.96,0,0,12.72-3.09,17.43-5.9s35.1-5.21,35.1-5.21l4.29-14.7s4.71-2.81,14.13-8.43c9.42-5.62,15.69-9.81,20.4-12.62s9.24-10.9,15.6-12.45,15.78-7.17,15.78-7.17l12.63-5.74,17.34-8.55,14.18-7.11,28.88.3,12.81-.45,8.33,8.96,13.09,7.47,14.32-3.15s4.66-4.13,11.12-3.04,17.9,7.3,17.9,7.3c0,0,14.83,11.38,21.33,13.79s17.71,2.02,17.71,2.02c0,0,6.36-1.55,14.46.81s17.9,7.3,17.9,7.3c0,0,9.8,4.94,14.65,6.09s12.86.87,12.86.87c0,0,4.99,5.11,14.83,11.38,9.84,6.26-.14-3.96,9.84,6.26,9.98,10.23,8.29,7.64,18.18,15.23s-6.41.23,9.89,7.58c16.3,7.36,18.08,12.58,35.75,13.28,17.66.7,27.32,1.68,27.32,1.68l17.8,4.66s9.84,6.26,16.16,3.4c6.31-2.87,14.23-5.79,14.23-5.79l19.17-2,19.41,4.6c9.7,2.3,16.3,7.36,22.61,4.49,6.31-2.87,14.23-5.79,14.23-5.79,0,0,11.21-.4,22.66,5.81,11.44,6.21-3.3-2.53,11.44,6.21,14.74,8.74,24.26,5.75,35.98,19.89,11.72,14.13,32.28,505.29,32.28,505.29l-1504.62,41.35-25.79-419.67Z"/>
      <path class="cls-5" d="M-326.6,316.74s7.73-8.21,13.99-12.39c6.27-4.19,18.61-17.85,18.61-17.85,15.69-9.81,28.18-19.51,28.18-19.51,0,0,15.69-9.81,20.45-11.3,4.76-1.49,7.91-2.92,14.27-4.47,6.36-1.55,4.8-.17,12.81-.45s-6.27,4.19,8.01-.28,12.58-7.06,18.89-9.92,13.99-12.39,13.99-12.39l28.55-8.94s9.52-2.98,14.27-4.47c4.76-1.49,11.07-4.36,15.88-4.53s11.1-6.16,11.1-6.16l10.85,3.29s8.24-4.8,14.69-3.71l6.45,1.09s12.63-5.74,17.38-7.23l14.09-9.75,12.44-11.02s7.77-6.89,7.63-10.85-3.39-5.17-.37-10.57,9.14-13.55,9.14-13.55l6.03-10.79,12.58-7.06,12.63-5.74c8.24,6.32,6.85,10.25,11.68,12.81,16.34,8.68,21.15,8.51,27.6,9.6s-3.25-1.21,6.45,1.09c9.7,2.3,24.07.47,28.88.3s17.62-.62,23.98-2.17c6.36-1.55,25.53-3.55,25.53-3.55l12.86.87,14.55,3.45c4.85,1.15,14.27-4.47,14.27-4.47,0,0,9.7-3.4,14.37-1.83,17.85,5.98,17.9,7.3,25.86,5.7,7.96-1.6,11.12-3.04,19.17-2s7.96-1.6,16.11,2.08c8.15,3.68,16.34,8.68,16.34,8.68l11.26.92,36.88.02,15.78-7.17,14.41-.51c19.5,7.24,22.75,8.45,38.81,9.21s27.41,4.32,35.28.08,9.19-12.23,20.4-12.62c11.21-.4,19.13-3.32,23.98-2.17s19.31,1.96,19.31,1.96c0,0,12.72-3.09,17.43-5.9s35.1-5.21,35.1-5.21l4.29-14.7s4.71-2.81,14.13-8.43c9.42-5.62,15.69-9.81,20.4-12.62s9.24-10.9,15.6-12.45,15.78-7.17,15.78-7.17l12.63-5.74,17.34-8.55,14.18-7.11,28.88.3,12.81-.45,8.33,8.96,13.09,7.47,14.32-3.15s4.66-4.13,11.12-3.04,17.9,7.3,17.9,7.3c0,0,14.83,11.38,21.33,13.79s17.71,2.02,17.71,2.02c0,0,6.36-1.55,14.46.81s17.9,7.3,17.9,7.3c0,0,9.8,4.94,14.65,6.09s12.86.87,12.86.87c0,0,4.99,5.11,14.83,11.38,9.84,6.26-.14-3.96,9.84,6.26,9.98,10.23,8.29,7.64,18.18,15.23s-6.41.23,9.89,7.58c16.3,7.36,18.08,12.58,35.75,13.28,17.66.7,27.32,1.68,27.32,1.68l17.8,4.66s9.84,6.26,16.16,3.4c6.31-2.87,14.23-5.79,14.23-5.79l19.17-2s9.7,2.3,19.41,4.6,16.3,7.36,22.61,4.49c6.31-2.87,14.23-5.79,14.23-5.79,0,0,11.21-.4,22.66,5.81,11.44,6.21-3.3-2.53,11.44,6.21,14.74,8.74,24.26,5.75,35.98,19.89,11.72,14.13,32.28,505.29,32.28,505.29l-1504.62,41.35-25.79-419.67Z"/>
      <path class="cls-4" d="M-165.93,296.6c-.78,2.38,30.6-23.77,30.6-23.77h51.87l15.6-7.13,11.77-5.23s7.06-6.18,10.98-7.61,22.75-9.51,22.75-9.51c0,0,6.28-9.03,8.63-9.03H-5.09l7.85-8.56,17.26-6.66,8.63,1.9h12.55l20.4,1.43,14.12-3.33h28.25l8.63,5.7,14.91-15.21,22.75-29s25.89,2.38,28.25,2.85,21.97-2.85,21.97-2.85l30.6,9.03,14.91,6.18,10.98,13.79,17.26,26.15,18.83.48s42.37-9.98,44.72-10.46,19.61-.95,19.61-.95l25.11,4.28s3.92-18.54,4.71-20.92c.78-2.38,10.2-12.84,10.2-12.84l16.48,9.03s14.12,7.13,16.48,7.61,16.48,15.69,16.48,15.69l23.54,3.8s18.05,2.38,24.32,2.85c6.28.48,32.95,7.61,33.74,9.03s-3.92,6.66,0,9.98,11.77,1.43,11.77,1.43c0,0,6.28-2.85,7.85,4.28,1.57,7.13,7.85,16.64,7.85,16.64l20.4,8.08s14.91,7.61,18.83,9.98c3.92,2.38,13.34,6.18,14.91,10.46,1.57,4.28,18.05,6.66,18.05,6.66,0,0,7.85,3.33,11.77,5.7s27.46,9.51,27.46,9.51c0,0,5.49,10.93,6.28,13.31s-3.92,11.89-3.92,11.89v5.23s6.28,2.4,7.85,3.58,5.49,8.78,5.49,8.78l9.42,2.85,33.74-20.92s11.77-4.75,14.12-2.38,8.63-15.69,10.2-18.07,16.48-10.46,16.48-10.46c0,0,15.69-9.98,18.83-4.28,3.14,5.7,14.91,19.97,16.48,21.87,1.57,1.9,20.4,20.44,20.4,20.44,0,0,10.2,16.64,14.12,16.64h19.61s17.26,11.41,18.83,7.61,32.95,6.18,32.95,6.18l16.48,15.69,29.03-12.84,30.6-3.8,14.91-1.9,40.01,45.64,39.23,10.93s-4.71,2.85,0,4.75c4.71,1.9,10.98,9.03,17.26,8.08,6.28-.95,36.09,2.85,36.09,2.85l7.06,8.08,26.52,137.61-1355.42-18.15,24.13-288.71Z"/>
      <path class="cls-9" d="M-143.54,427.27l58.15,16.77,12.64-2.85s10.75,2.53,11.38,1.27,6.95-9.18,6.95-9.18l21.49,2.37s15.17,1.74,19.59-1.74c4.42-3.48,13.27-6.33,17.7-7.91,4.42-1.58,22.75-11.07,22.75-11.07h8.85l6.95-7.28,15.8-3.83h20.86v3.51l14.54-9.49h4.42l13.91-4.11,7.58-2.21,20.23-4.75,8.85-8.23,21.49-2.85,5.69,1.58,10.75-1.58h15.84l10.71-8.23,7.58-8.86,6.95-2.21h5.69l6.95,1.58,9.48-5.7,2.53-3.16,13.27-8.23v-7.91l13.91-7.97,24.02-13.87h13.27l21.49,3.48,14.54,8.54,12.01,12.02,10.11,3.16,7.58,6.64,13.91.95,6.32,3.48v2.21l6.95,3.48,5.69,1.58,2.53,3.48,12.64,4.75,11.38,3.8,7.58,5.38s8.85,3.16,9.48,5.06,0,6.01,0,6.01l12.64,1.27,13.27.32,19.59,4.75,17.07,3.48,21.49,16.14,12.64,4.43,6.95,5.38,12.01,3.48v-5.08l15.17-5.04,9.48-4.11,13.27-2.21,6.32,1.27,16.43,5.7,10.75.32v-12.66l13.27,5.38,22.12,4.11s3.16.32,4.42,1.58.63,2.85,10.11,3.48,30.97-1.9,30.97-1.9l5.06-6.33,13.27-3.16,27.81-1.93,10.75,3.51,12.64,2.21,12.64-4.11v182.46l-954.86-.38,1.68-160.25Z"/>
      <path class="cls-1" d="M-16.36,480.85s11.06-7.11,15.21-9.48-5.53,2.37,4.15-2.37c9.68-4.74,17.98-14.22,17.98-14.22,11.06,1.18,24.89-8.29,24.89-8.29,0,0,5.53-4.74,9.68-7.11,4.15-2.37,17.98-10.66,17.98-10.66,0,0,4.15-2.37,9.68-1.18,0,0,6.91,8.29,11.06,8.29s16.59-5.92,16.59-5.92l12.45,3.55,9.68,5.92,12.45,1.18,13.83,10.66c11.06,3.55,4.15,9.48,11.06,3.55,6.91-5.92,13.83-8.29,13.83-8.29l12.45-3.55,9.68-8.29c8.3-1.18,0-2.37,8.3-1.18,8.3,1.18,2.77-1.18,8.3,1.18,5.53,2.37-12.45-9.48,0,0l12.45,9.48h0l12.45,7.11,9.68-4.74,8.3-8.29,8.3-4.74,9.68-3.55,11.06-2.37c9.68,3.55,16.59,3.55,20.74,7.11l11.06,8.29s2.36,8.93,6.91,10.66c12.45,4.74,13.38,5.47,17.98,7.11,16.59,5.92,23.51,5.92,29.04,7.11,5.53,1.18,12.45,1.18,12.45,1.18l23.51-9.48,13.83-7.11,5.53-5.92s4.15-5.92,8.3-8.29l11.06-8.29,6.91-8.29,9.68-4.74,5.53-9.48,8.3-8.29,16.59-5.92,17.98-5.92c8.3,5.92,2.77,0,8.3,5.92,5.53,5.92,1.38-2.37,5.53,5.92,4.15,8.29,5.53,16.59,5.53,16.59,0,0,5.53,7.11,9.68,9.48,4.15,2.37,7.01,3.44,11.06,5.92,9.68,5.92,5.53-1.18,9.68,5.92s4.15-1.18,4.15,7.11v8.29s-8.3,5.92,0,0,13.83-11.85,13.83-11.85l15.21-1.18,15.21-8.29,15.21-8.29,22.13,11.85,9.68,8.29,8.3,7.11h0l13.83-7.11,6.91,8.29,12.45,4.74s5.53-5.92,11.06-3.55l13.83,2.37,8.3-4.74,9.68-7.11,19.36-14.22s11.06-3.55,15.21-3.55l17.98,5.92,9.68,3.55,11.06,9.48s-1.38,9.48,6.91,13.03c8.3,3.55,16.59,7.11,16.59,7.11l11.06,5.92s13.83,2.37,19.36,2.37h5.53s8.3-3.55,12.45-2.37,16.59,11.85,16.59,11.85c15.21,3.55,6.91,3.55,15.21,3.55s1.38-3.55,8.3,0l6.91,3.55s2.77,3.55,11.06,4.74c8.3,1.18,16.59-1.18,16.59-1.18,11.06,7.11,2.77,2.37,11.06,7.11,8.3,4.74,15.21,5.92,15.21,5.92l11.06,1.18,12.45,3.55,11.06-2.37,11.06,8.29,12.45-3.55,19.36-15.4,15.61,353.56L-20.29,820.96l3.93-340.11Z"/>
      <g>
        <rect class="cls-9" x="281.55" y="140.18" width="13.33" height="10.28"/>
        <path class="cls-9" d="M286.38,131.07l-7.39,10.47h18.64l-8.15-10.54c-.79-1.02-2.35-.99-3.1.07Z"/>
        <rect class="cls-9" x="293.29" y="133" width="1.95" height="6.84"/>
      </g>
    </g>
  </g>
</svg>