<?xml version="1.0" encoding="UTF-8"?>
<svg id="Layer_1" xmlns="http://www.w3.org/2000/svg" viewBox="0 0 595.39 90.13">
  <defs>
    <style>
      .cls-1 {
        fill: #754c29;
      }

      .cls-1, .cls-2, .cls-3, .cls-4 {
        stroke: #231f20;
        stroke-miterlimit: 10;
      }

      .cls-2 {
        fill: #fff200;
      }

      .cls-3 {
        fill: #c49a6c;
      }

      .cls-4 {
        fill: #39b54a;
      }
    </style>
  </defs>
  <path class="cls-3" d="M18.2,28.89c-1.16,12.64-1.51,24.07.33,32.19H.5V28.89h17.7Z"/>
  <path class="cls-3" d="M577.18,28.89c1.16,12.64,1.51,24.07-.33,32.19h18.04s0-32.19,0-32.19h-17.7Z"/>
  <path class="cls-1" d="M23.3,5.49h9.24c-12.62,24.69-10.1,50.4,0,77.13h-9.24c-9.02-23.85-15.16-48.22,0-77.13Z"/>
  <path class="cls-1" d="M572.72,84.22h-9.1c12.42-24.69,9.94-50.4,0-77.13h9.1c8.88,23.85,14.92,48.22,0,77.13Z"/>
  <path class="cls-4" d="M560.49.5H34.27c-13.92,27.25-13.92,56.97,0,89.13h526.22c13.92-27.25,13.92-56.97,0-89.13Z"/>
  <path class="cls-2" d="M34.52.5h9.24c-14.55,29.79-12.03,59.49,0,89.13h-9.24c-11.02-26.93-17.15-55.09,0-89.13Z"/>
  <path class="cls-2" d="M560.49.5h-9.02c14.21,29.79,11.74,59.49,0,89.13h9.02c15.64-25.45,15.38-59.94,0-89.13Z"/>
</svg>