<?xml version="1.0" encoding="UTF-8"?>
<svg id="Layer_1" data-name="Layer 1" xmlns="http://www.w3.org/2000/svg" viewBox="0 0 595.39 35.64">
  <defs>
    <style>
      .cls-1 {
        fill: #00a651;
      }

      .cls-1, .cls-2, .cls-3, .cls-4 {
        stroke: #231f20;
        stroke-miterlimit: 10;
      }

      .cls-2 {
        fill: #c49a6c;
      }

      .cls-3 {
        fill: #fff200;
      }

      .cls-4 {
        fill: #754c29;
      }
    </style>
  </defs>
  <path class="cls-2" d="M18.2,11.53c-1.16,4.91-1.51,9.35.33,12.51H.5v-12.51h17.7Z"/>
  <path class="cls-2" d="M577.18,11.53c1.16,4.91,1.51,9.35-.33,12.51h18.04s0-12.51,0-12.51h-17.7Z"/>
  <path class="cls-4" d="M23.3,2.44h9.24c-12.62,9.6-10.1,19.58,0,29.98h-9.24c-9.02-9.27-15.16-18.74,0-29.98Z"/>
  <path class="cls-4" d="M572.72,33.03h-9.1c12.42-9.6,9.94-19.58,0-29.98h9.1c8.88,9.27,14.92,18.74,0,29.98Z"/>
  <path class="cls-1" d="M560.49.5H34.27c-13.92,10.59-13.92,22.14,0,34.64h526.22c13.92-10.59,13.92-22.14,0-34.64Z"/>
  <path class="cls-3" d="M34.52.5h9.24c-14.55,11.58-12.03,23.12,0,34.64h-9.24c-11.02-10.46-17.15-21.41,0-34.64Z"/>
  <path class="cls-3" d="M560.49.5h-9.02c14.21,11.58,11.74,23.12,0,34.64h9.02c15.64-9.89,15.38-23.3,0-34.64Z"/>
</svg>